<mxfile host="app.diagrams.net" modified="2024-07-05T09:01:21.494Z" agent="Mozilla/5.0 (Windows NT 10.0; Win64; x64) AppleWebKit/537.36 (KHTML, like Gecko) Chrome/127.0.0.0 Safari/537.36 Edg/127.0.0.0" etag="VW6wG2gAvcey26b2vIFH" version="24.6.4" type="github">
  <diagram name="第 1 页" id="_UOp_g0qZEWWEiO1d6dB">
    <mxGraphModel dx="1426" dy="-36" grid="1" gridSize="10" guides="1" tooltips="1" connect="1" arrows="1" fold="1" page="1" pageScale="1" pageWidth="1169" pageHeight="827" math="0" shadow="0">
      <root>
        <mxCell id="0" />
        <mxCell id="1" parent="0" />
        <mxCell id="J0mIcsC_Z7fb-HMf94dg-1" value="&lt;font style=&quot;font-size: 18px;&quot;&gt;多嵌入特征语义信息&lt;/font&gt;" style="text;html=1;align=center;verticalAlign=middle;resizable=0;points=[];autosize=1;strokeColor=none;fillColor=none;" parent="1" vertex="1">
          <mxGeometry x="300" y="1120" width="190" height="40" as="geometry" />
        </mxCell>
        <mxCell id="I4VxMJiTH_GUWdxZwMfk-1" value="················" style="rounded=1;whiteSpace=wrap;html=1;" parent="1" vertex="1">
          <mxGeometry x="310" y="1180" width="170" height="350" as="geometry" />
        </mxCell>
        <mxCell id="I4VxMJiTH_GUWdxZwMfk-22" style="edgeStyle=orthogonalEdgeStyle;rounded=0;orthogonalLoop=1;jettySize=auto;html=1;" parent="1" source="I4VxMJiTH_GUWdxZwMfk-2" target="I4VxMJiTH_GUWdxZwMfk-7" edge="1">
          <mxGeometry relative="1" as="geometry" />
        </mxCell>
        <mxCell id="I4VxMJiTH_GUWdxZwMfk-2" value="多嵌入特征语义信息表征块" style="rounded=0;whiteSpace=wrap;html=1;" parent="1" vertex="1">
          <mxGeometry x="335" y="1200" width="120" height="60" as="geometry" />
        </mxCell>
        <mxCell id="I4VxMJiTH_GUWdxZwMfk-3" value="多嵌入特征语义信息表征块" style="rounded=0;whiteSpace=wrap;html=1;" parent="1" vertex="1">
          <mxGeometry x="335" y="1260" width="120" height="60" as="geometry" />
        </mxCell>
        <mxCell id="I4VxMJiTH_GUWdxZwMfk-4" value="多嵌入特征语义信息表征块" style="rounded=0;whiteSpace=wrap;html=1;" parent="1" vertex="1">
          <mxGeometry x="335" y="1450" width="120" height="60" as="geometry" />
        </mxCell>
        <mxCell id="I4VxMJiTH_GUWdxZwMfk-5" value="多嵌入特征语义信息表征块" style="rounded=0;whiteSpace=wrap;html=1;" parent="1" vertex="1">
          <mxGeometry x="335" y="1390" width="120" height="60" as="geometry" />
        </mxCell>
        <mxCell id="I4VxMJiTH_GUWdxZwMfk-7" value="" style="rounded=0;whiteSpace=wrap;html=1;" parent="1" vertex="1">
          <mxGeometry x="670" y="900" width="139" height="860" as="geometry" />
        </mxCell>
        <mxCell id="FY35_VsIN61rcXAERCnz-22" style="edgeStyle=orthogonalEdgeStyle;rounded=0;orthogonalLoop=1;jettySize=auto;html=1;entryX=0;entryY=0.5;entryDx=0;entryDy=0;dashed=1;" edge="1" parent="1" source="I4VxMJiTH_GUWdxZwMfk-8" target="FY35_VsIN61rcXAERCnz-20">
          <mxGeometry relative="1" as="geometry" />
        </mxCell>
        <mxCell id="I4VxMJiTH_GUWdxZwMfk-8" value="边缘信息&lt;div&gt;特征图&lt;/div&gt;" style="rounded=0;whiteSpace=wrap;html=1;" parent="1" vertex="1">
          <mxGeometry x="679" y="1030" width="120" height="60" as="geometry" />
        </mxCell>
        <mxCell id="FY35_VsIN61rcXAERCnz-19" style="edgeStyle=orthogonalEdgeStyle;rounded=0;orthogonalLoop=1;jettySize=auto;html=1;entryX=0.5;entryY=0;entryDx=0;entryDy=0;" edge="1" parent="1" source="I4VxMJiTH_GUWdxZwMfk-9" target="FY35_VsIN61rcXAERCnz-18">
          <mxGeometry relative="1" as="geometry" />
        </mxCell>
        <mxCell id="I4VxMJiTH_GUWdxZwMfk-9" value="&lt;b&gt;表征提示词&lt;/b&gt;" style="rounded=0;whiteSpace=wrap;html=1;" parent="1" vertex="1">
          <mxGeometry x="679" y="910" width="120" height="60" as="geometry" />
        </mxCell>
        <mxCell id="FY35_VsIN61rcXAERCnz-26" style="edgeStyle=orthogonalEdgeStyle;rounded=0;orthogonalLoop=1;jettySize=auto;html=1;entryX=0;entryY=0.5;entryDx=0;entryDy=0;dashed=1;" edge="1" parent="1" source="I4VxMJiTH_GUWdxZwMfk-10" target="FY35_VsIN61rcXAERCnz-20">
          <mxGeometry relative="1" as="geometry" />
        </mxCell>
        <mxCell id="I4VxMJiTH_GUWdxZwMfk-10" value="目标运动轨迹运动&lt;div&gt;指导特征图&lt;/div&gt;" style="rounded=0;whiteSpace=wrap;html=1;" parent="1" vertex="1">
          <mxGeometry x="679" y="1270" width="120" height="60" as="geometry" />
        </mxCell>
        <mxCell id="FY35_VsIN61rcXAERCnz-23" style="edgeStyle=orthogonalEdgeStyle;rounded=0;orthogonalLoop=1;jettySize=auto;html=1;entryX=0;entryY=0.5;entryDx=0;entryDy=0;dashed=1;" edge="1" parent="1" source="I4VxMJiTH_GUWdxZwMfk-11" target="FY35_VsIN61rcXAERCnz-20">
          <mxGeometry relative="1" as="geometry" />
        </mxCell>
        <mxCell id="I4VxMJiTH_GUWdxZwMfk-11" value="语义超分辨率增强&lt;div&gt;特征图&lt;/div&gt;" style="rounded=0;whiteSpace=wrap;html=1;" parent="1" vertex="1">
          <mxGeometry x="679" y="1090" width="120" height="60" as="geometry" />
        </mxCell>
        <mxCell id="FY35_VsIN61rcXAERCnz-30" style="edgeStyle=orthogonalEdgeStyle;rounded=0;orthogonalLoop=1;jettySize=auto;html=1;entryX=0;entryY=0.5;entryDx=0;entryDy=0;dashed=1;" edge="1" parent="1" source="I4VxMJiTH_GUWdxZwMfk-12" target="FY35_VsIN61rcXAERCnz-20">
          <mxGeometry relative="1" as="geometry" />
        </mxCell>
        <mxCell id="I4VxMJiTH_GUWdxZwMfk-12" value="可变语言文字&lt;div&gt;指导向量&lt;/div&gt;" style="rounded=0;whiteSpace=wrap;html=1;" parent="1" vertex="1">
          <mxGeometry x="679.5" y="1510" width="120" height="60" as="geometry" />
        </mxCell>
        <mxCell id="FY35_VsIN61rcXAERCnz-27" style="edgeStyle=orthogonalEdgeStyle;rounded=0;orthogonalLoop=1;jettySize=auto;html=1;entryX=0;entryY=0.5;entryDx=0;entryDy=0;dashed=1;" edge="1" parent="1" source="I4VxMJiTH_GUWdxZwMfk-13" target="FY35_VsIN61rcXAERCnz-20">
          <mxGeometry relative="1" as="geometry" />
        </mxCell>
        <mxCell id="I4VxMJiTH_GUWdxZwMfk-13" value="&lt;div&gt;可变角色语义&lt;/div&gt;&lt;div&gt;指导向量&lt;/div&gt;" style="rounded=0;whiteSpace=wrap;html=1;" parent="1" vertex="1">
          <mxGeometry x="679" y="1330" width="120" height="60" as="geometry" />
        </mxCell>
        <mxCell id="FY35_VsIN61rcXAERCnz-28" style="edgeStyle=orthogonalEdgeStyle;rounded=0;orthogonalLoop=1;jettySize=auto;html=1;entryX=0;entryY=0.5;entryDx=0;entryDy=0;dashed=1;" edge="1" parent="1" source="I4VxMJiTH_GUWdxZwMfk-14" target="FY35_VsIN61rcXAERCnz-20">
          <mxGeometry relative="1" as="geometry" />
        </mxCell>
        <mxCell id="I4VxMJiTH_GUWdxZwMfk-14" value="&lt;div&gt;个性化风格表达&lt;/div&gt;&lt;div&gt;指导向量&lt;/div&gt;" style="rounded=0;whiteSpace=wrap;html=1;" parent="1" vertex="1">
          <mxGeometry x="679" y="1390" width="120" height="60" as="geometry" />
        </mxCell>
        <mxCell id="FY35_VsIN61rcXAERCnz-24" style="edgeStyle=orthogonalEdgeStyle;rounded=0;orthogonalLoop=1;jettySize=auto;html=1;entryX=0;entryY=0.5;entryDx=0;entryDy=0;dashed=1;" edge="1" parent="1" source="I4VxMJiTH_GUWdxZwMfk-15" target="FY35_VsIN61rcXAERCnz-20">
          <mxGeometry relative="1" as="geometry" />
        </mxCell>
        <mxCell id="I4VxMJiTH_GUWdxZwMfk-15" value="&lt;div&gt;低分辨率&lt;/div&gt;&lt;div&gt;特征图&lt;/div&gt;" style="rounded=0;whiteSpace=wrap;html=1;" parent="1" vertex="1">
          <mxGeometry x="679" y="1150" width="120" height="60" as="geometry" />
        </mxCell>
        <mxCell id="FY35_VsIN61rcXAERCnz-21" style="edgeStyle=orthogonalEdgeStyle;rounded=0;orthogonalLoop=1;jettySize=auto;html=1;entryX=0;entryY=0.5;entryDx=0;entryDy=0;dashed=1;" edge="1" parent="1" source="I4VxMJiTH_GUWdxZwMfk-16" target="FY35_VsIN61rcXAERCnz-20">
          <mxGeometry relative="1" as="geometry" />
        </mxCell>
        <mxCell id="I4VxMJiTH_GUWdxZwMfk-16" value="运动矢量方向特征图" style="rounded=0;whiteSpace=wrap;html=1;" parent="1" vertex="1">
          <mxGeometry x="679" y="970" width="120" height="60" as="geometry" />
        </mxCell>
        <mxCell id="FY35_VsIN61rcXAERCnz-25" style="edgeStyle=orthogonalEdgeStyle;rounded=0;orthogonalLoop=1;jettySize=auto;html=1;entryX=0;entryY=0.5;entryDx=0;entryDy=0;dashed=1;" edge="1" parent="1" source="I4VxMJiTH_GUWdxZwMfk-17" target="FY35_VsIN61rcXAERCnz-20">
          <mxGeometry relative="1" as="geometry" />
        </mxCell>
        <mxCell id="I4VxMJiTH_GUWdxZwMfk-17" value="&lt;div&gt;光流运动估计&lt;/div&gt;&lt;div&gt;特征图&lt;/div&gt;" style="rounded=0;whiteSpace=wrap;html=1;" parent="1" vertex="1">
          <mxGeometry x="679" y="1210" width="120" height="60" as="geometry" />
        </mxCell>
        <mxCell id="FY35_VsIN61rcXAERCnz-31" style="edgeStyle=orthogonalEdgeStyle;rounded=0;orthogonalLoop=1;jettySize=auto;html=1;entryX=0;entryY=0.5;entryDx=0;entryDy=0;dashed=1;" edge="1" parent="1" source="I4VxMJiTH_GUWdxZwMfk-18" target="FY35_VsIN61rcXAERCnz-20">
          <mxGeometry relative="1" as="geometry" />
        </mxCell>
        <mxCell id="I4VxMJiTH_GUWdxZwMfk-18" value="&lt;div&gt;语义一致性&lt;/div&gt;&lt;div&gt;控制向量&lt;/div&gt;" style="rounded=0;whiteSpace=wrap;html=1;" parent="1" vertex="1">
          <mxGeometry x="679" y="1570" width="120" height="60" as="geometry" />
        </mxCell>
        <mxCell id="FY35_VsIN61rcXAERCnz-17" style="edgeStyle=orthogonalEdgeStyle;rounded=0;orthogonalLoop=1;jettySize=auto;html=1;entryX=0.5;entryY=1;entryDx=0;entryDy=0;" edge="1" parent="1" source="I4VxMJiTH_GUWdxZwMfk-19" target="FY35_VsIN61rcXAERCnz-16">
          <mxGeometry relative="1" as="geometry" />
        </mxCell>
        <mxCell id="I4VxMJiTH_GUWdxZwMfk-19" value="&lt;div&gt;基础控制参数&lt;/div&gt;" style="rounded=0;whiteSpace=wrap;html=1;" parent="1" vertex="1">
          <mxGeometry x="679" y="1690" width="120" height="60" as="geometry" />
        </mxCell>
        <mxCell id="FY35_VsIN61rcXAERCnz-29" style="edgeStyle=orthogonalEdgeStyle;rounded=0;orthogonalLoop=1;jettySize=auto;html=1;entryX=0;entryY=0.5;entryDx=0;entryDy=0;dashed=1;" edge="1" parent="1" source="I4VxMJiTH_GUWdxZwMfk-20" target="FY35_VsIN61rcXAERCnz-20">
          <mxGeometry relative="1" as="geometry" />
        </mxCell>
        <mxCell id="I4VxMJiTH_GUWdxZwMfk-20" value="语义相对位置关系&lt;div&gt;指导向量&lt;/div&gt;" style="rounded=0;whiteSpace=wrap;html=1;" parent="1" vertex="1">
          <mxGeometry x="679" y="1450" width="120" height="60" as="geometry" />
        </mxCell>
        <mxCell id="FY35_VsIN61rcXAERCnz-32" style="edgeStyle=orthogonalEdgeStyle;rounded=0;orthogonalLoop=1;jettySize=auto;html=1;entryX=0;entryY=0.5;entryDx=0;entryDy=0;dashed=1;" edge="1" parent="1" source="I4VxMJiTH_GUWdxZwMfk-21" target="FY35_VsIN61rcXAERCnz-20">
          <mxGeometry relative="1" as="geometry" />
        </mxCell>
        <mxCell id="I4VxMJiTH_GUWdxZwMfk-21" value="&lt;div&gt;语义微调&lt;/div&gt;&lt;div&gt;控制向量&lt;/div&gt;" style="rounded=0;whiteSpace=wrap;html=1;" parent="1" vertex="1">
          <mxGeometry x="679" y="1630" width="120" height="60" as="geometry" />
        </mxCell>
        <mxCell id="I4VxMJiTH_GUWdxZwMfk-25" value="多嵌入特征语义信息表征块" style="text;html=1;align=center;verticalAlign=middle;whiteSpace=wrap;rounded=0;" parent="1" vertex="1">
          <mxGeometry x="679" y="1770" width="120" height="50" as="geometry" />
        </mxCell>
        <mxCell id="FY35_VsIN61rcXAERCnz-37" style="edgeStyle=orthogonalEdgeStyle;rounded=0;orthogonalLoop=1;jettySize=auto;html=1;entryX=0;entryY=0.5;entryDx=0;entryDy=0;" edge="1" parent="1" source="FY35_VsIN61rcXAERCnz-16" target="FY35_VsIN61rcXAERCnz-34">
          <mxGeometry relative="1" as="geometry" />
        </mxCell>
        <mxCell id="FY35_VsIN61rcXAERCnz-16" value="参数加载模块" style="rounded=0;whiteSpace=wrap;html=1;" vertex="1" parent="1">
          <mxGeometry x="890" y="1360" width="220" height="80" as="geometry" />
        </mxCell>
        <mxCell id="FY35_VsIN61rcXAERCnz-35" style="edgeStyle=orthogonalEdgeStyle;rounded=0;orthogonalLoop=1;jettySize=auto;html=1;entryX=0;entryY=0.5;entryDx=0;entryDy=0;" edge="1" parent="1" source="FY35_VsIN61rcXAERCnz-18" target="FY35_VsIN61rcXAERCnz-34">
          <mxGeometry relative="1" as="geometry" />
        </mxCell>
        <mxCell id="FY35_VsIN61rcXAERCnz-18" value="表征提示词嵌入层" style="rounded=0;whiteSpace=wrap;html=1;" vertex="1" parent="1">
          <mxGeometry x="890" y="1120" width="220" height="80" as="geometry" />
        </mxCell>
        <mxCell id="FY35_VsIN61rcXAERCnz-36" style="edgeStyle=orthogonalEdgeStyle;rounded=0;orthogonalLoop=1;jettySize=auto;html=1;entryX=0;entryY=0.5;entryDx=0;entryDy=0;dashed=1;" edge="1" parent="1" source="FY35_VsIN61rcXAERCnz-20" target="FY35_VsIN61rcXAERCnz-34">
          <mxGeometry relative="1" as="geometry" />
        </mxCell>
        <mxCell id="FY35_VsIN61rcXAERCnz-20" value="辅助表征及指导嵌入层" style="rounded=0;whiteSpace=wrap;html=1;" vertex="1" parent="1">
          <mxGeometry x="890" y="1240" width="220" height="80" as="geometry" />
        </mxCell>
        <mxCell id="FY35_VsIN61rcXAERCnz-39" style="edgeStyle=orthogonalEdgeStyle;rounded=0;orthogonalLoop=1;jettySize=auto;html=1;entryX=0;entryY=0.5;entryDx=0;entryDy=0;" edge="1" parent="1" source="FY35_VsIN61rcXAERCnz-34" target="FY35_VsIN61rcXAERCnz-38">
          <mxGeometry relative="1" as="geometry" />
        </mxCell>
        <mxCell id="FY35_VsIN61rcXAERCnz-34" value="生成式AI&lt;div&gt;视频推理模型&lt;/div&gt;" style="rounded=0;whiteSpace=wrap;html=1;" vertex="1" parent="1">
          <mxGeometry x="1190" y="1162.5" width="120" height="235" as="geometry" />
        </mxCell>
        <mxCell id="FY35_VsIN61rcXAERCnz-38" value="产生重构视频/&lt;br&gt;待迭代视频" style="rounded=1;whiteSpace=wrap;html=1;" vertex="1" parent="1">
          <mxGeometry x="1360" y="1250" width="120" height="60" as="geometry" />
        </mxCell>
      </root>
    </mxGraphModel>
  </diagram>
</mxfile>
